<svg xmlns="http://www.w3.org/2000/svg" width="1600" height="3270" style="width:100%;height:100%;transform:translate3d(0,0,0)"><defs><clipPath id="a"><path d="M0 0h1600v3270H0z"/></clipPath><clipPath id="b"><path d="M0 0h4800v9810H0z"/></clipPath><clipPath id="c"><path d="M0 0h1600v1241H0z"/></clipPath><clipPath id="d"><path d="M0 0h1461v833H0z"/></clipPath><clipPath id="e"><path d="M0 0h471v185H0z"/></clipPath><clipPath id="g"><path d="M0 0h471v189H0z"/></clipPath><clipPath id="i"><path d="M0 0h471v189H0z"/></clipPath><clipPath id="k"><path d="M0 0h471v189H0z"/></clipPath><clipPath id="m"><path d="M0 0h471v189H0z"/></clipPath><clipPath id="o"><path d="M0 0h471v189H0z"/></clipPath><clipPath id="q"><path d="M0 0h471v189H0z"/></clipPath><clipPath id="s"><path d="M0 0h471v185H0z"/></clipPath><clipPath id="u"><path d="M0 0h471v185H0z"/></clipPath><clipPath id="w"><path d="M0 0h471v185H0z"/></clipPath><clipPath id="y"><path d="M0 0h250v250H0z"/></clipPath><clipPath id="z"><path d="M0 0h510v222H0z"/></clipPath><filter id="f" x="0%" y="0%" width="100%" height="100%"><feGaussianBlur in="SourceAlpha" result="drop_shadow_1"/><feOffset dy="12.081" in="drop_shadow_1" result="drop_shadow_2"/><feFlood flood-color="#000" flood-opacity="1" result="drop_shadow_3"/><feComposite in="drop_shadow_3" in2="drop_shadow_2" operator="in" result="drop_shadow_4"/><feMerge><feMergeNode/><feMergeNode in="SourceGraphic"/></feMerge></filter><filter id="h" x="0%" y="0%" width="100%" height="100%"><feGaussianBlur in="SourceAlpha" result="drop_shadow_1"/><feOffset dy="12.081" in="drop_shadow_1" result="drop_shadow_2"/><feFlood flood-color="#000" flood-opacity="1" result="drop_shadow_3"/><feComposite in="drop_shadow_3" in2="drop_shadow_2" operator="in" result="drop_shadow_4"/><feMerge><feMergeNode/><feMergeNode in="SourceGraphic"/></feMerge></filter><filter id="j" x="0%" y="0%" width="100%" height="100%"><feGaussianBlur in="SourceAlpha" result="drop_shadow_1"/><feOffset dy="12.081" in="drop_shadow_1" result="drop_shadow_2"/><feFlood flood-color="#000" flood-opacity="1" result="drop_shadow_3"/><feComposite in="drop_shadow_3" in2="drop_shadow_2" operator="in" result="drop_shadow_4"/><feMerge><feMergeNode/><feMergeNode in="SourceGraphic"/></feMerge></filter><filter id="l" x="0%" y="0%" width="100%" height="100%"><feGaussianBlur in="SourceAlpha" result="drop_shadow_1"/><feOffset dy="12.081" in="drop_shadow_1" result="drop_shadow_2"/><feFlood flood-color="#000" flood-opacity="1" result="drop_shadow_3"/><feComposite in="drop_shadow_3" in2="drop_shadow_2" operator="in" result="drop_shadow_4"/><feMerge><feMergeNode/><feMergeNode in="SourceGraphic"/></feMerge></filter><filter id="n" x="0%" y="0%" width="100%" height="100%"><feGaussianBlur in="SourceAlpha" result="drop_shadow_1"/><feOffset dy="12.081" in="drop_shadow_1" result="drop_shadow_2"/><feFlood flood-color="#000" flood-opacity="1" result="drop_shadow_3"/><feComposite in="drop_shadow_3" in2="drop_shadow_2" operator="in" result="drop_shadow_4"/><feMerge><feMergeNode/><feMergeNode in="SourceGraphic"/></feMerge></filter><filter id="p" x="0%" y="0%" width="100%" height="100%"><feGaussianBlur in="SourceAlpha" result="drop_shadow_1"/><feOffset dy="12.081" in="drop_shadow_1" result="drop_shadow_2"/><feFlood flood-color="#000" flood-opacity="1" result="drop_shadow_3"/><feComposite in="drop_shadow_3" in2="drop_shadow_2" operator="in" result="drop_shadow_4"/><feMerge><feMergeNode/><feMergeNode in="SourceGraphic"/></feMerge></filter><filter id="r" x="0%" y="0%" width="100%" height="100%"><feGaussianBlur in="SourceAlpha" result="drop_shadow_1"/><feOffset dy="12.081" in="drop_shadow_1" result="drop_shadow_2"/><feFlood flood-color="#000" flood-opacity="1" result="drop_shadow_3"/><feComposite in="drop_shadow_3" in2="drop_shadow_2" operator="in" result="drop_shadow_4"/><feMerge><feMergeNode/><feMergeNode in="SourceGraphic"/></feMerge></filter><filter id="t" x="0%" y="0%" width="100%" height="100%"><feGaussianBlur in="SourceAlpha" result="drop_shadow_1"/><feOffset dy="12.081" in="drop_shadow_1" result="drop_shadow_2"/><feFlood flood-color="#000" flood-opacity="1" result="drop_shadow_3"/><feComposite in="drop_shadow_3" in2="drop_shadow_2" operator="in" result="drop_shadow_4"/><feMerge><feMergeNode/><feMergeNode in="SourceGraphic"/></feMerge></filter><filter id="v" x="0%" y="0%" width="100%" height="100%"><feGaussianBlur in="SourceAlpha" result="drop_shadow_1"/><feOffset dy="12.081" in="drop_shadow_1" result="drop_shadow_2"/><feFlood flood-color="#000" flood-opacity="1" result="drop_shadow_3"/><feComposite in="drop_shadow_3" in2="drop_shadow_2" operator="in" result="drop_shadow_4"/><feMerge><feMergeNode/><feMergeNode in="SourceGraphic"/></feMerge></filter><filter id="x" x="0%" y="0%" width="100%" height="100%"><feGaussianBlur in="SourceAlpha" result="drop_shadow_1"/><feOffset dy="12.081" in="drop_shadow_1" result="drop_shadow_2"/><feFlood flood-color="#000" flood-opacity="1" result="drop_shadow_3"/><feComposite in="drop_shadow_3" in2="drop_shadow_2" operator="in" result="drop_shadow_4"/><feMerge><feMergeNode/><feMergeNode in="SourceGraphic"/></feMerge></filter></defs><g clip-path="url(#a)"><g clip-path="url(#y)" transform="translate(675 1510)" style="display:block"><path stroke="#FFF" d="M0-21c11.59 0 21 9.41 21 21S11.59 21 0 21s-21-9.41-21-21 9.41-21 21-21z" fill="none" transform="matrix(4 0 0 4 125 125)" style="display:block"/><path fill="#FFF" d="M12-7.08-4.14 9-12 1.15l1.93-1.92 5.93 5.9L10.07-9 12-7.08z" transform="matrix(4 0 0 4 128 124)" style="display:block"/></g><g clip-path="url(#z)" transform="matrix(1.66624 0 0 1.66624 77.109 432.296)" style="display:block" fill="#FAFF2E" font-size="138" font-family="Sequel Sans" font-weight="500"><g style="display:block"><path d="M-3.41-26.81c0-21.18-13.74-25.21-27.34-28.86l-14.66-3.89c-7.45-2.02-13.22-4.63-13.22-12.43 0-8.26 6.43-14.25 16.7-14.25 10.81 0 17.81 5.81 19.94 17.33l16.33-1.21c-3.58-15.95-12.73-25.94-27.96-28.45v-15.14h-14.33v14.92C-63.71-96.7-75.07-86.7-75.07-71.45c0 18.19 12.38 22.99 24.22 26.26l15.23 4.17c9.03 2.47 15.51 5.22 15.51 14.73 0 9.51-7.55 15.18-18.41 15.18-11.65 0-21.81-5.18-23.31-20.71l-16.26 1.74c2.26 17.75 13.19 28.52 30.14 31.3v17.02h14.33V1.72C-16.81.18-3.4-9.23-3.4-26.81h-.01z" style="display:inherit" transform="translate(116 157)" aria-label="$"/></g><g style="display:block"><path d="M24.76-97.39c-1.49 7.14-6.87 13.94-19.06 13.94H2.78v11.25h19.6V0h16.18v-97.39h-13.8zm29.98 78.54V0h8.3c0 7.96-2.36 11.6-7.67 11.91v8.49c12.98-.31 18.56-9.34 18.56-24.68v-14.57H54.74zm68.92-80.49c-20.74 0-38.09 12.81-38.09 50.7 0 37.78 17.35 50.59 38.09 50.59 20.77 0 38.09-12.81 38.09-50.59 0-37.89-17.32-50.7-38.09-50.7zm0 88.26c-12.08 0-21.03-8.24-21.03-37.56 0-29.43 8.95-37.67 21.03-37.67 12.08 0 21.06 8.24 21.06 37.67 0 29.32-8.98 37.56-21.06 37.56zm85.7-88.26c-20.74 0-38.09 12.81-38.09 50.7 0 37.78 17.35 50.59 38.09 50.59 20.77 0 38.09-12.81 38.09-50.59 0-37.89-17.32-50.7-38.09-50.7zm0 88.26c-12.08 0-21.04-8.24-21.04-37.56 0-29.43 8.96-37.67 21.04-37.67 12.08 0 21.06 8.24 21.06 37.67 0 29.32-8.98 37.56-21.06 37.56zm85.69-88.26c-20.73 0-38.08 12.81-38.08 50.7 0 37.78 17.35 50.59 38.08 50.59 20.77 0 38.09-12.81 38.09-50.59 0-37.89-17.32-50.7-38.09-50.7zm0 88.26c-12.08 0-21.03-8.24-21.03-37.56 0-29.43 8.95-37.67 21.03-37.67 12.09 0 21.07 8.24 21.07 37.67 0 29.32-8.98 37.56-21.07 37.56z" style="display:inherit" transform="translate(124 157)" aria-label="1,000"/></g></g><g style="display:block"><path d="m-507.03-80.58-22.56-40.34h-16.91l31.6 53.53v33.85h15.43v-33.97l31.6-53.41h-16.61l-22.55 40.34zm74.1-19.13c-19.65 0-32.07 13.37-32.07 33.84 0 20.49 12.42 33.83 32.07 33.83 19.5 0 31.95-13.34 31.95-33.83 0-20.47-12.45-33.84-31.95-33.84zm0 56.42c-10.73 0-17.47-8.26-17.47-22.59 0-14.29 6.74-22.58 17.47-22.58 10.61 0 17.32 8.29 17.32 22.58 0 14.33-6.71 22.59-17.32 22.59zm96.52 9.75v-64.67h-14.35v35.4c0 12.53-7.36 18.94-15.11 18.94-8.65 0-13.43-4.1-13.43-15.6v-38.74h-14.35v42.77c0 16.4 10.96 23.4 22.85 23.4 8.37 0 15.44-3.13 20.22-10h.49v8.5h13.68zm8.74 0h14.35v-33.77c0-13.93 7.63-18.68 17.86-18.68 2.51 0 4.86.27 6.51.49v-13.63c-1.44-.34-3.47-.58-5.31-.58-9.29 0-15.93 4.93-19.21 11.26h-.49v-9.76h-13.71v64.67zm96.85-9.73c-10.15 0-16.65-8.28-16.65-22.61 0-14.29 6.5-22.58 16.65-22.58 10.34 0 14.04 7.7 15.42 11.79l13.61-3.82c-2.2-6.43-9.65-19.22-29.03-19.22-19.04 0-31.25 13.37-31.25 33.83 0 20.5 12.21 33.84 31.25 33.84 19.56 0 27.72-12.95 30.26-22.62l-14.5-1.99c-1.38 5.38-5.09 13.38-15.76 13.38zm92.91 9.73c-1.59-2.82-1.72-6.49-1.72-13.53v-32.46c0-11.34-7.44-20.18-26.55-20.18-14.46 0-25.43 7.09-28.28 18.86l13.19 2.57c2.21-7.1 8.26-10.35 14.63-10.35 9.05 0 12.66 3.62 12.66 8.98 0 3.96-3.21 6.07-15.63 7.38-17.26 1.83-27.29 7-27.29 20.92 0 12.03 9.94 19.31 21.86 19.31 7.95 0 17.08-3.03 21.18-9.4.03 3.71.92 6.77 1.9 7.9h14.05zm-16.07-25.36c0 11.61-10.11 16.18-17.97 16.18-6.37 0-10.36-3.13-10.36-8.92 0-6.69 6.02-9.78 12.57-10.67 6.77-.88 13.68-1.9 15.76-3.92v7.33zm23.05 25.36h14.35v-33.77c0-13.93 7.63-18.68 17.86-18.68 2.5 0 4.86.27 6.51.49v-13.63c-1.44-.34-3.47-.58-5.31-.58-9.29 0-15.94 4.93-19.21 11.26h-.49v-9.76h-13.71v64.67zm71.44-66.17c-16.77 0-28.93 13.37-28.93 33.84 0 20.49 12.16 33.83 29.05 33.83 8.92 0 16.32-3.56 19.92-9.79h.49v8.29h13.68v-88.6h-14.35v31.36h-.49c-3.52-5.38-10.37-8.93-19.37-8.93zm3.27 56.36c-10.73 0-17.6-8.29-17.6-22.52 0-14.21 6.87-22.5 17.6-22.5 10.64 0 17.48 8.29 17.48 22.5 0 14.23-6.84 22.52-17.48 22.52zm91.05-1.9c-5.07 0-7.37-.61-7.37-6.52v-36.16h13.87v-10.28H27.46v-18.18H13.14v18.18H2.61v10.28h10.53v39.91c0 11.98 5.51 14.73 17.54 14.73 3.56 0 8.57-.1 10.03-.25v-11.81c-1.74.1-4.38.1-5.88.1zM47.1-33.54h14.35v-33.77c0-13.93 7.63-18.68 17.86-18.68 2.5 0 4.85.27 6.51.49v-13.63c-1.44-.34-3.47-.58-5.31-.58-9.3 0-15.94 4.93-19.21 11.26h-.49v-9.76H47.1v64.67zm101.04 0c-1.59-2.82-1.71-6.49-1.71-13.53v-32.46c0-11.34-7.45-20.18-26.56-20.18-14.45 0-25.43 7.09-28.27 18.86l13.19 2.57c2.21-7.1 8.25-10.35 14.62-10.35 9.05 0 12.67 3.62 12.67 8.98 0 3.96-3.21 6.07-15.63 7.38-17.26 1.83-27.3 7-27.3 20.92 0 12.03 9.94 19.31 21.87 19.31 7.95 0 17.07-3.03 21.18-9.4.03 3.71.92 6.77 1.9 7.9h14.04zM132.08-58.9c0 11.61-10.12 16.18-17.97 16.18-6.38 0-10.36-3.13-10.36-8.92 0-6.69 6.01-9.78 12.57-10.67 6.77-.88 13.68-1.9 15.76-3.92v7.33zm23.05-39.31v64.67h14.35v-35.4c0-12.53 7.39-18.94 15.11-18.94 8.68 0 13.43 4.1 13.43 15.6v38.74h14.35v-42.77c0-16.4-10.93-23.4-22.85-23.4-8.34 0-15.41 3.13-20.19 10h-.49v-8.5h-13.71zm118.4 17.06c-1.8-10.26-12.78-18.56-27.3-18.56-15.08 0-26.37 7.84-26.37 19.36 0 13.61 10.7 17.12 20.86 18.83l6.69 1.1c7.65 1.32 12.99 3.16 12.99 8.47 0 6.1-5.49 9.69-13.4 9.69-8.67 0-14.8-3.8-16.68-12.42l-13.22 2.36c2.2 12.07 12.99 20.28 29.66 20.28 16.04 0 28.26-6.76 28.26-20.4 0-14.06-10.79-17.52-22.1-19.48l-6.45-.98c-6.77-1.19-12.07-2.51-12.07-7.81 0-5.61 4.78-8.68 11.77-8.68 6.65 0 12.57 3.46 14.23 10.6l13.13-2.36zm36.88-31.01c2.51 0 6.01.24 7.96.46v-11.08c-2.07-.37-6.41-.86-10.33-.86-11.45 0-19.41 4.23-19.41 17.18v8.25H278.1v10.28h10.53v54.39h14.32v-54.39h13.87v-10.28h-13.87v-6.73c0-6.19 3.43-7.22 7.46-7.22zm57.49 58.1c-1.44 4.44-5.49 11.03-15.98 11.03-10.02 0-16.34-8.28-16.65-19.58h47.62c1.68-23.54-11.68-37.1-31.06-37.1-19.19 0-31.09 13.47-31.09 33.96 0 20.25 12.32 33.71 31.18 33.71 19.62 0 27.75-11.22 30.54-20.49l-14.56-1.53zm-16.07-34.75c10.33 0 15.66 7.52 16.52 16.03h-32.86c.86-8.51 6.19-16.03 16.34-16.03zm38.56 55.27h14.35v-33.77c0-13.93 7.63-18.68 17.86-18.68 2.5 0 4.85.27 6.51.49v-13.63c-1.44-.34-3.47-.58-5.31-.58-9.3 0-15.94 4.93-19.21 11.26h-.49v-9.76h-13.71v64.67zM-542.03.38v88.6h14.35V54.63c0-12.51 7.61-19.99 15.12-19.99 8.67 0 13.43 4.1 13.43 15.6v38.74h14.35V46.21c0-16.4-10.94-23.4-22.46-23.4-8.09 0-15.01 3.13-19.94 10h-.49V.38h-14.36zm122.68 88.6c-1.59-2.82-1.72-6.49-1.72-13.53V42.98c0-11.33-7.44-20.17-26.55-20.17-14.45 0-25.43 7.09-28.27 18.86l13.19 2.57c2.2-7.11 8.25-10.35 14.62-10.35 9.05 0 12.66 3.62 12.66 8.98 0 3.95-3.21 6.07-15.62 7.38-17.26 1.83-27.3 7-27.3 20.92 0 12.03 9.94 19.31 21.87 19.31 7.95 0 17.07-3.03 21.17-9.4.03 3.71.92 6.77 1.9 7.9h14.05zm-16.07-25.36c0 11.61-10.11 16.18-17.97 16.18-6.37 0-10.36-3.13-10.36-8.92 0-6.69 6.02-9.78 12.57-10.67 6.77-.88 13.68-1.9 15.76-3.92v7.33zm75.47-22.25c-1.8-10.26-12.77-18.56-27.3-18.56-15.08 0-26.37 7.84-26.37 19.36 0 13.61 10.7 17.12 20.86 18.83l6.69 1.1c7.65 1.32 12.99 3.16 12.99 8.47 0 6.1-5.49 9.69-13.4 9.69-8.67 0-14.8-3.8-16.68-12.42l-13.22 2.36c2.2 12.07 12.99 20.28 29.66 20.28 16.04 0 28.26-6.76 28.26-20.4 0-14.06-10.78-17.52-22.1-19.48l-6.45-.98c-6.77-1.19-12.07-2.51-12.07-7.81 0-5.61 4.78-8.68 11.77-8.68 6.65 0 12.57 3.46 14.23 10.6l13.13-2.36zm88.24 47.61c-1.59-2.82-1.71-6.49-1.71-13.53V42.98c0-11.33-7.44-20.17-26.56-20.17-14.45 0-25.42 7.09-28.27 18.86l13.19 2.57c2.21-7.11 8.25-10.35 14.62-10.35 9.06 0 12.67 3.62 12.67 8.98 0 3.95-3.21 6.07-15.63 7.38-17.26 1.83-27.3 7-27.3 20.92 0 12.03 9.94 19.31 21.87 19.31 7.95 0 17.07-3.03 21.18-9.4.03 3.71.92 6.77 1.9 7.9h14.04zm-16.06-25.36c0 11.61-10.12 16.18-17.97 16.18-6.37 0-10.36-3.13-10.36-8.92 0-6.69 6.02-9.78 12.57-10.67 6.77-.88 13.68-1.9 15.76-3.92v7.33zm23.05 25.36h14.35V55.21c0-13.93 7.63-18.68 17.86-18.68 2.5 0 4.85.27 6.51.49V23.39c-1.44-.34-3.47-.58-5.31-.58-9.3 0-15.94 4.93-19.21 11.25h-.49v-9.75h-13.71v64.67zm44.35 0h14.35V55.21c0-13.93 7.63-18.68 17.86-18.68 2.51 0 4.86.27 6.51.49V23.39c-1.44-.34-3.47-.58-5.31-.58-9.29 0-15.93 4.93-19.2 11.25h-.49v-9.75h-13.71l-.01 64.67zm58.92-74.54V.38h-14.35v14.06h14.35zm0 74.54V24.31h-14.35v64.67h14.35zm53.95-64.67-16.71 48.51h-.49l-16.46-48.51h-15.63l23.81 64.67h16.63l24.14-64.67h-15.29zm64.91 44.15c-1.45 4.44-5.49 11.03-15.98 11.03-10.02 0-16.34-8.28-16.65-19.58h47.62c1.68-23.54-11.68-37.1-31.06-37.1-19.2 0-31.09 13.47-31.09 33.96 0 20.25 12.32 33.71 31.18 33.71 19.62 0 27.75-11.22 30.54-20.49l-14.56-1.53zm-16.07-34.75c10.33 0 15.66 7.51 16.52 16.03H-75c.86-8.52 6.19-16.03 16.34-16.03zm65.64-10.9c-16.77 0-28.92 13.37-28.92 33.84 0 20.49 12.15 33.83 29.04 33.83 8.92 0 16.32-3.56 19.92-9.79h.49v8.29h13.68V.38H26.84v31.36h-.49c-3.52-5.38-10.37-8.93-19.36-8.93h-.01zm3.27 56.36c-10.73 0-17.6-8.29-17.6-22.52 0-14.21 6.87-22.5 17.6-22.5 10.64 0 17.48 8.29 17.48 22.5 0 14.23-6.84 22.52-17.48 22.52zm57.24 9.81v-16.6h-16.9v16.6h16.9z" style="display:inherit" transform="translate(657.669 971.657)" fill="#FFF" font-size="121.519" font-family="Sequel Sans" font-weight="500" aria-label="Your card transfer has arrived."/></g><g style="display:block"><path d="M-434.23-76.64v8.25h15.04v38.35h9.79v-38.35h15.09v-8.25h-39.92zm44.82 46.6h9.14v-17.44c0-7.08 3.88-9.37 9.06-9.37 1.35 0 2.78.17 3.61.26v-8.54c-.63-.15-1.55-.28-2.43-.28-5.06 0-8.52 2.54-10.39 6.11h-.26v-5.29h-8.73v34.55zm57.17 0c-.85-1.39-.92-3.35-.92-6.95v-17.23c0-6.56-4.51-11.19-14.94-11.19-8.17 0-14.22 3.89-15.76 10.41l8.47 1.26c1.07-3.47 3.88-5.14 7.07-5.14 4.15 0 6.02 1.66 6.02 4.28 0 2.02-1.74 3.07-8.52 3.85-9.1 1.08-14.34 3.87-14.34 11.27 0 6.44 5.43 10.27 11.85 10.27 4.35 0 9.05-1.7 11.03-4.88.09 1.89.48 3.42 1.01 4.05h9.03zm-10.06-13.45c0 5.74-4.91 7.98-8.56 7.98-3.07 0-5.04-1.61-5.04-4.4 0-3.19 2.78-4.76 6.11-5.26 3.32-.5 6.38-.95 7.49-1.87v3.55zm15.5-21.1v34.55h9.14v-18.8c0-6.17 3.53-9.18 7.33-9.18 4.17 0 6.46 2.02 6.46 7.59v20.39h9.14V-52.8c0-8.74-5.54-12.61-12.16-12.61-4.91 0-8.55 2.07-10.92 5.41h-.26v-4.59h-8.73zm67.2 9.27c-1.09-6.02-7.2-10.09-15.24-10.09-8.11 0-14.79 3.96-14.79 10.56 0 7.4 5.82 9.35 11.35 10.27l3.8.58c3.92.68 6.49 1.66 6.49 4.09 0 2.9-2.57 4.62-6.45 4.62-4.28 0-7.18-1.92-8.03-6l-8.51 1.18c1.17 6.73 7.38 10.9 16.45 10.9 8.97 0 15.86-3.53 15.86-11.07 0-7.72-6-9.59-12.2-10.63l-3.56-.53c-3.53-.61-6.06-1.28-6.06-3.81 0-2.65 2.33-4.07 5.67-4.07 3.32 0 6.07 1.77 6.79 5.17l8.43-1.17zm21.89-15.92c1.29 0 2.99.13 4.04.21v-6.63c-1.26-.2-3.74-.46-5.68-.46-6.77 0-11.58 2.09-11.58 9.54v3.99h-5.51v6.16h5.51v28.39h9.14v-28.39h7.2v-6.16h-7.2v-2.91c0-3.03 1.68-3.75 4.09-3.75l-.01.01zm30.37 30.17c-.63 2.29-2.57 5.35-7.57 5.35-4.78 0-7.88-3.93-7.99-9.66h25.18c.87-12.94-6.4-20.03-17.22-20.03-10.77 0-17.29 7.07-17.29 18.16 0 10.96 6.69 18.04 17.32 18.04 10.95 0 15.55-6.18 16.9-11.1l-9.33-.76zm-7.6-17.96c4.89 0 7.57 3.49 7.88 7.76h-15.75c.35-4.27 3.03-7.76 7.87-7.76zm22.42 28.99h9.14v-17.44c0-7.08 3.88-9.37 9.07-9.37 1.34 0 2.78.17 3.6.26v-8.54c-.63-.15-1.55-.28-2.42-.28-5.07 0-8.53 2.54-10.4 6.11h-.26v-5.29h-8.73v34.55zm25.99 0h9.14v-17.44c0-7.08 3.88-9.37 9.07-9.37 1.34 0 2.78.17 3.6.26v-8.54c-.63-.15-1.55-.28-2.42-.28-5.07 0-8.53 2.54-10.4 6.11h-.26v-5.29h-8.73v34.55zm49.41-11.03c-.64 2.29-2.58 5.35-7.58 5.35-4.78 0-7.88-3.93-7.99-9.66h25.18c.87-12.94-6.39-20.03-17.21-20.03-10.78 0-17.3 7.07-17.3 18.16 0 10.96 6.7 18.04 17.32 18.04 10.95 0 15.56-6.18 16.91-11.1l-9.33-.76zm-7.6-17.96c4.89 0 7.57 3.49 7.88 7.76h-15.76c.35-4.27 3.03-7.76 7.88-7.76zm36-6.38c-8.62 0-15.06 7.05-15.06 18.1 0 11.09 6.44 18.1 15.24 18.1 4.51 0 8.51-1.69 10.59-5.33h.26v4.5h8.73v-47.25h-9.14v16.75h-.26c-1.96-2.98-5.51-4.87-10.36-4.87zM-86-36.19c-5.17 0-8.47-3.83-8.47-11.12 0-7.26 3.3-11.08 8.47-11.08 5.06 0 8.4 3.82 8.4 11.08 0 7.29-3.34 11.12-8.4 11.12zm71.86-6.66c0-10.22-6.88-12.11-13.49-13.85l-6.94-1.83c-3.33-.89-5.88-1.98-5.88-5.21 0-3.37 2.83-5.86 7.3-5.86 4.94 0 7.93 2.6 8.74 7.44l9.08-.65c-1.48-7.53-5.98-12.17-13.27-13.44v-7.22h-7.97v7.12c-7.64 1.1-13.09 5.7-13.09 13.08 0 8.87 6.28 11.06 12.19 12.65l6.88 1.85c4.24 1.14 7.01 2.29 7.01 6.24 0 3.96-3.35 6.27-8.02 6.27-5.23 0-9.68-2.35-10.25-8.94l-9.2.98c.95 8.28 6.33 13.31 14.48 14.7v8.18h7.97v-7.95c8.07-.86 14.46-5.21 14.46-13.56zm14.8-32.9c-.78 3.62-3.49 7.14-9.3 7.14h-1.37v6.28h9.2v32.29h9.18v-45.71H.66zm16.03 35.78v9.93h4.09c0 3.76-1.22 5.5-3.84 5.68v4.55c7.25-.28 10.12-4.63 10.12-12.89v-7.27H16.69zm35.35-36.69c-10.66 0-18.46 6.36-18.46 23.78 0 17.39 7.8 23.75 18.46 23.75 10.65 0 18.45-6.36 18.45-23.75 0-17.42-7.8-23.78-18.45-23.78zm0 40.45c-5.11 0-8.84-3.58-8.84-16.67 0-13.12 3.73-16.7 8.84-16.7 5.1 0 8.84 3.58 8.84 16.7 0 13.09-3.74 16.67-8.84 16.67zm41.99-40.45c-10.65 0-18.45 6.36-18.45 23.78 0 17.39 7.8 23.75 18.45 23.75 10.66 0 18.46-6.36 18.46-23.75 0-17.42-7.8-23.78-18.46-23.78zm0 40.45c-5.1 0-8.84-3.58-8.84-16.67 0-13.12 3.74-16.7 8.84-16.7 5.11 0 8.84 3.58 8.84 16.7 0 13.09-3.73 16.67-8.84 16.67zm42-40.45c-10.66 0-18.45 6.36-18.45 23.78 0 17.39 7.79 23.75 18.45 23.75s18.46-6.36 18.46-23.75c0-17.42-7.8-23.78-18.46-23.78zm0 40.45c-5.11 0-8.84-3.58-8.84-16.67 0-13.12 3.73-16.7 8.84-16.7 5.11 0 8.84 3.58 8.84 16.7 0 13.09-3.73 16.67-8.84 16.67z" style="display:inherit" transform="translate(548.861 2501.06)" fill="#FFF" font-size="64.81" font-family="Sequel Sans" aria-label="Transferred $1,000"/></g><g style="display:block"><path d="M-423.3 8.49V.67h-9.14v7.82h9.14zm0 39.43V13.38h-9.14v34.54h9.14zm6.8-34.54v34.54h9.14v-18.8c0-6.17 3.54-9.18 7.33-9.18 4.17 0 6.46 2.03 6.46 7.59v20.39h9.14V25.16c0-8.74-5.53-12.61-12.16-12.61-4.91 0-8.54 2.08-10.92 5.42h-.26v-4.59h-8.73zm54.49 27.43c-2.83 0-4.02-.33-4.02-3.4V19.54h7.2v-6.16h-7.2V3.74h-9.14v9.64h-5.51v6.16h5.51v20.17c0 6.82 3.04 8.34 10.09 8.34 2.26 0 5.1-.02 5.99-.13v-7.13c-.85.02-1.99.02-2.92.02zm23.34-28.26c-10.96 0-17.68 7.05-17.68 18.1 0 11.09 6.72 18.1 17.68 18.1 10.92 0 17.65-7.01 17.65-18.1 0-11.05-6.73-18.1-17.65-18.1zm0 29.3c-5.13 0-8.36-3.78-8.36-11.2 0-7.38 3.23-11.21 8.36-11.21 5.1 0 8.33 3.83 8.33 11.21 0 7.42-3.23 11.2-8.33 11.2zm36.76-40.53v46.6h9.79V31.45h11.83c10.74 0 16.85-5.78 16.85-15.08 0-9.26-6.11-15.05-16.85-15.05h-21.62zm9.79 22.37V9.08h10.19c5.56 0 8.48 2.73 8.48 7.29 0 4.6-2.92 7.32-8.48 7.32h-10.19zm49.69-11.14c-10.95 0-17.67 7.05-17.67 18.1 0 11.09 6.72 18.1 17.67 18.1 10.93 0 17.65-7.01 17.65-18.1 0-11.05-6.72-18.1-17.65-18.1zm0 29.3c-5.13 0-8.36-3.78-8.36-11.2 0-7.38 3.23-11.21 8.36-11.21 5.11 0 8.33 3.83 8.33 11.21 0 7.42-3.22 11.2-8.33 11.2zm31.9-33.36V.67h-9.14v7.82h9.14zm0 39.43V13.38h-9.14v34.54h9.14zm6.8-34.54v34.54h9.14v-18.8c0-6.17 3.54-9.18 7.33-9.18 4.17 0 6.46 2.03 6.46 7.59v20.39h9.14V25.16c0-8.74-5.53-12.61-12.16-12.61-4.9 0-8.54 2.08-10.92 5.42h-.26v-4.59h-8.73zm54.49 27.43c-2.82 0-4.02-.33-4.02-3.4V19.54h7.2v-6.16h-7.2V3.74h-9.14v9.64h-5.51v6.16h5.51v20.17c0 6.82 3.04 8.34 10.09 8.34 2.26 0 5.1-.02 5.99-.13v-7.13c-.85.02-1.99.02-2.92.02zm52.83 7.11V13.38h-9.14v18.79c0 6.18-3.54 9.19-7.33 9.19-4.17 0-6.46-2.03-6.46-7.59v-20.4h-9.14v22.76c0 8.75 5.57 12.62 12.16 12.62 4.95 0 8.58-2.08 10.92-5.42h.26v4.59h8.73zm35.12-25.28c-1.08-6.01-7.19-10.09-15.23-10.09-8.11 0-14.79 3.97-14.79 10.57 0 7.39 5.82 9.35 11.35 10.26l3.8.59c3.92.67 6.49 1.65 6.49 4.08 0 2.9-2.57 4.62-6.46 4.62-4.27 0-7.17-1.91-8.03-6l-8.51 1.18c1.18 6.74 7.39 10.9 16.46 10.9 8.97 0 15.86-3.53 15.86-11.07 0-7.72-6-9.59-12.2-10.63l-3.56-.52c-3.53-.61-6.06-1.29-6.06-3.82 0-2.64 2.33-4.06 5.67-4.06 3.32 0 6.07 1.76 6.79 5.17l8.42-1.18zm14.92-14.15V.67h-9.14v7.82h9.14zm0 39.43V13.38h-9.14v34.54h9.14zm6.81-34.54v34.54h9.14v-18.8c0-6.17 3.53-9.18 7.33-9.18 4.17 0 6.46 2.03 6.46 7.59v20.39h9.14V25.16c0-8.74-5.54-12.61-12.17-12.61-4.9 0-8.54 2.08-10.91 5.42h-.27v-4.59h-8.72zm62.65 4.13h-.26c-2.09-3.5-5.94-4.96-10.4-4.96-8.65 0-15 6.51-15 16.75 0 10.31 6.35 16.84 14.87 16.84 4.76 0 8.16-1.61 10.11-4.42h.26v3.33c0 6.41-3.16 8.88-8 8.88-4.12 0-6.79-1.59-7.92-5.59l-9.01 1.07c2.15 8.11 8.78 11.35 16.93 11.35 9.58 0 17.14-4.01 17.14-15.42V13.37h-8.72v4.14zm-8.08 21.73c-5.02 0-8.27-3.9-8.27-9.94 0-5.93 3.25-9.77 8.27-9.77 4.96 0 8.21 3.84 8.21 9.77 0 6.04-3.25 9.94-8.21 9.94zm56.72-1.72h-.26L59.35 1.32H48.86l16.92 46.6H77.2l17.01-46.6H83.83l-12.1 36.2zm35.31-29.03V.67H97.9v7.82h9.14zm0 39.43V13.38H97.9v34.54h9.14zm35.57-25.28c-1.09-6.01-7.19-10.09-15.23-10.09-8.12 0-14.8 3.97-14.8 10.57 0 7.39 5.83 9.35 11.35 10.26l3.8.59c3.92.67 6.5 1.65 6.5 4.08 0 2.9-2.58 4.62-6.46 4.62-4.28 0-7.18-1.91-8.03-6l-8.51 1.18c1.17 6.74 7.38 10.9 16.45 10.9 8.97 0 15.86-3.53 15.86-11.07 0-7.72-6-9.59-12.19-10.63l-3.57-.52c-3.53-.61-6.06-1.29-6.06-3.82 0-2.64 2.34-4.06 5.68-4.06 3.31 0 6.06 1.76 6.78 5.17l8.43-1.18zm36.95 25.28c-.85-1.39-.91-3.35-.91-6.95V23.74c0-6.56-4.51-11.19-14.95-11.19-8.17 0-14.21 3.89-15.75 10.41l8.46 1.26c1.07-3.46 3.89-5.14 7.07-5.14 4.16 0 6.03 1.66 6.03 4.28 0 2.02-1.74 3.07-8.52 3.85-9.1 1.09-14.35 3.87-14.35 11.27 0 6.44 5.44 10.27 11.85 10.27 4.35 0 9.06-1.7 11.04-4.88.09 1.9.48 3.42 1 4.05h9.03zm-10.05-13.45c0 5.74-4.91 7.98-8.56 7.98-3.08 0-5.04-1.61-5.04-4.4 0-3.19 2.78-4.76 6.11-5.25 3.31-.5 6.38-.96 7.49-1.88v3.55zm77.45-8.4h-47.93v7.87h47.93v-7.87zM284 48.84c-9.31 0-17.49-4.18-17.49-13.67 0-5.94 3-9.81 7.72-11.64v-.26c-4-1.7-6.55-4.88-6.55-9.38 0-8.72 7.9-12.53 16.32-12.53 8.39 0 16.33 3.81 16.33 12.53 0 4.5-2.55 7.68-6.55 9.38v.26c4.68 1.83 7.68 5.7 7.68 11.64 0 9.49-8.14 13.67-17.46 13.67zm0-41.04c-3.9 0-7.65 2.08-7.65 6.56 0 4.49 3.7 6.57 7.65 6.57s7.66-2.08 7.66-6.57c0-4.48-3.8-6.56-7.66-6.56zm0 19.07c-4.27 0-8.33 2.4-8.33 7.61 0 5.26 4.04 7.66 8.33 7.66 4.26 0 8.29-2.4 8.29-7.66 0-5.21-4.05-7.61-8.29-7.61zm32.35-24.66c-.78 3.63-3.49 7.14-9.3 7.14h-1.37v6.28h9.2v32.29h9.18V2.21h-7.71zm32.64 14.54c-3.96 0-6.77 1.06-9.08 3.41h-.26l.87-10.4h20.72V2.21h-28.08l-2.15 24.85h8.66c1.46-1.61 3.9-3.27 7.44-3.27 4.37 0 7.78 2.86 7.78 8.91 0 6.11-3.41 8.97-7.6 8.97-4.23 0-7.05-2.49-7.84-6.7l-9.33.97c1.55 8.46 8.17 12.9 17.17 12.9 9 0 17.04-5.06 17.04-16.1 0-11.11-8.02-15.99-15.34-15.99zm32.76 11.01h4.13c5.06 0 8.38 2.14 8.38 6.92 0 4.41-3.36 6.98-7.77 6.98-4.37 0-7.81-2.12-8.47-8.02l-9.36.67c1.03 10.02 8.05 14.48 17.83 14.48 9.78 0 17.22-4.11 17.22-14.02 0-5.83-3.49-9.25-8.01-10.62v-.26c3.91-1.53 6.87-4.8 6.87-9.43 0-8.4-6.66-13.14-16.04-13.14-9.38 0-15.62 4.79-16.38 13.46l9.09.61c.48-4.67 3.43-6.89 7.29-6.89 3.82 0 6.81 2.31 6.81 6.3 0 3.93-2.99 6.38-7.46 6.38h-4.13v6.58z" style="display:inherit" transform="translate(548.861 2501.06)" fill="#888" font-size="64.81" font-family="Sequel Sans" aria-label="into Point using Visa — 8153"/></g><path stroke="#FFF" stroke-opacity=".251" d="M197.5-356v712c0 27.595-22.405 50-50 50h-295c-27.595 0-50-22.405-50-50v-712c0-27.595 22.405-50 50-50h295c27.595 0 50 22.405 50 50z" fill="none" transform="matrix(4 0 0 4 800 1635)" style="display:block"/></g></svg>